<svg width="92" height="92" viewBox="0 0 92 92" fill="none" xmlns="http://www.w3.org/2000/svg">
    <path d="M55.1667 68.9167L68.9167 55.1667L55.1667 41.4167M36.8333 23.0833L23.0833 36.8333L36.8333 50.5833M26.75 87.25H65.25C72.9507 87.25 76.8011 87.25 79.7424 85.7513C82.3296 84.4331 84.4331 82.3296 85.7513 79.7424C87.25 76.8011 87.25 72.9507 87.25 65.25V26.75C87.25 19.0493 87.25 15.1989 85.7513 12.2576C84.4331 9.6704 82.3296 7.56692 79.7424 6.24866C76.8011 4.75 72.9507 4.75 65.25 4.75H26.75C19.0493 4.75 15.1989 4.75 12.2576 6.24866C9.6704 7.56692 7.56692 9.6704 6.24866 12.2576C4.75 15.1989 4.75 19.0493 4.75 26.75V65.25C4.75 72.9507 4.75 76.8011 6.24866 79.7424C7.56692 82.3296 9.6704 84.4331 12.2576 85.7513C15.1989 87.25 19.0493 87.25 26.75 87.25Z" stroke="#FCFCFC" stroke-width="9.16667" stroke-linecap="round" stroke-linejoin="round"/>
</svg>
